<svg width="60" height="60" viewBox="0 0 60 60" fill="none" xmlns="http://www.w3.org/2000/svg">
<g clip-path="url(#clip0_220_383)">
<mask id="mask0_220_383" style="mask-type:luminance" maskUnits="userSpaceOnUse" x="0" y="0" width="60" height="60">
<path d="M59.9581 0H0V59.9612H59.9581V0Z" fill="white"/>
</mask>
<g mask="url(#mask0_220_383)">
<path d="M30.083 9.22543C30.083 9.22543 29.9033 10.3353 30.8931 10.8208C31.883 11.3064 33.482 12.1387 33.482 12.1387C33.482 12.1387 34.2434 12.4855 34.2434 12.9711C34.2434 12.9711 34.3195 13.2486 33.5581 13.6647L30.1317 15.5376C30.1317 15.5376 29.218 16.0231 29.218 16.5087C29.218 16.9942 29.8272 17.341 29.8272 17.341C29.8272 17.341 32.3398 18.9364 32.1114 20.3237C32.1114 20.3237 31.883 21.2948 31.5784 21.5723" stroke="#68686B" stroke-width="3" stroke-miterlimit="10"/>
<path d="M58.1513 35.237C52.5167 21.2948 31.4513 21.095 31.4513 21.095H28.5061C28.5061 21.095 7.44059 21.2948 1.80608 35.237C1.80608 35.237 -7.02641 55.9075 14.3695 59.6532C14.3695 59.6532 17.7183 60.3468 24.5337 59.6532C24.5337 59.6532 28.3035 59.237 29.9787 59.4451C31.6538 59.237 35.4236 59.6532 35.4236 59.6532C42.2391 60.3468 45.5878 59.6532 45.5878 59.6532C66.9837 55.9075 58.1513 35.237 58.1513 35.237Z" fill="#36B7DA"/>
<path d="M49.433 36.4509C48.035 32.7468 44.4107 30.7207 40.6614 29.6178L40.6751 29.597C29.1396 26.3847 19.2183 29.5963 19.216 29.597C15.4409 30.6957 11.7792 32.7232 10.3721 36.4515C10.3721 36.4515 6.7934 45.9544 14.3315 48.0354C14.3315 48.0354 17.2629 48.9718 22.3264 48.2435C22.3264 48.2435 22.8731 48.19 23.7091 48.1255C23.7091 48.1255 25.8213 47.8314 29.6261 47.8425V47.8439L30.0731 47.8453C31.7772 47.8606 33.7949 47.9376 36.0952 48.1255C36.9312 48.19 37.4779 48.2435 37.4779 48.2435C42.5414 48.9718 45.4728 48.0354 45.4728 48.0354C53.0109 45.9544 49.4322 36.4515 49.4322 36.4515L49.433 36.4509Z" fill="#4E4E4E"/>
<path d="M44.8629 36.5008C44.8629 36.5008 39.2261 37.7806 36.4873 40.2229C36.4873 40.2229 42.1538 41.7211 44.7754 43.3158" stroke="#36B7DA" stroke-width="2" stroke-linecap="round" stroke-linejoin="round"/>
<path d="M14.9429 36.5008C14.9429 36.5008 20.5797 37.7806 23.3185 40.2229C23.3185 40.2229 17.652 41.7211 15.0304 43.3158" stroke="#36B7DA" stroke-width="2" stroke-linecap="round" stroke-linejoin="round"/>
<path d="M29.9025 9.57225C32.8041 9.57225 35.1563 7.42946 35.1563 4.78613C35.1563 2.14283 32.8041 0 29.9025 0C27.0009 0 24.6487 2.14283 24.6487 4.78613C24.6487 7.42946 27.0009 9.57225 29.9025 9.57225Z" fill="#226FA9"/>
<path d="M27.999 4.57804C28.7979 4.57804 29.4457 3.98798 29.4457 3.26012C29.4457 2.53225 28.7979 1.9422 27.999 1.9422C27.2 1.9422 26.5523 2.53225 26.5523 3.26012C26.5523 3.98798 27.2 4.57804 27.999 4.57804Z" fill="white"/>
</g>
</g>
<defs>
<clipPath id="clip0_220_383">
<rect width="60" height="60" fill="white"/>
</clipPath>
</defs>
</svg>
