<svg width="1313" height="1217" viewBox="0 0 1313 1217" fill="none" xmlns="http://www.w3.org/2000/svg">
<path d="M1272.93 1051.7L779.425 1011.4L658.725 1045L538.126 1011.4L44.6255 1051.7C44.6255 1051.7 21.1255 1159.4 35.1255 1185.4C35.1255 1185.4 38.2255 1193.4 45.8255 1199.7C116.826 1148.9 350.025 1006.5 632.225 1090.4C632.225 1090.4 666.225 1095.4 683.725 1090.4C683.725 1090.4 1055.83 1002.4 1264.53 1204.4C1277.53 1198.4 1282.53 1185.4 1282.53 1185.4C1296.43 1159.4 1272.93 1051.7 1272.93 1051.7Z" fill="#FFF296"/>
<path d="M683.626 1090.4C666.126 1095.4 632.126 1090.4 632.126 1090.4C349.926 1006.5 116.726 1149 45.7256 1199.7C47.8256 1201.5 50.2256 1203.1 53.0256 1204.4L76.0256 1215.4C76.0256 1215.4 82.0256 1220.4 94.0256 1210.4C94.0256 1210.4 244.026 1095.4 418.026 1090.4C418.026 1090.4 498.826 1089 571.426 1096.7C572.026 1096.8 572.626 1096.8 573.126 1096.9C576.926 1097.4 585.426 1099.4 583.926 1106.5C583.926 1106.5 578.926 1116.5 588.926 1118.5C588.926 1118.5 595.626 1121.8 629.426 1123.8C629.426 1123.8 637.526 1124.5 649.826 1124.7C652.626 1124.8 655.526 1124.9 658.626 1124.9V1124.7C658.826 1124.7 659.126 1124.7 659.326 1124.7V1124.9C661.826 1124.8 664.226 1124.8 666.526 1124.7C673.426 1124.6 680.926 1124.3 688.526 1123.7C722.326 1121.7 729.026 1118.4 729.026 1118.4C739.026 1116.4 734.026 1106.4 734.026 1106.4C732.026 1097.4 746.626 1096.7 746.626 1096.7L746.526 1096.6C819.026 1089 899.326 1090.4 899.326 1090.4C1073.33 1095.4 1223.33 1210.4 1223.33 1210.4C1235.33 1220.4 1241.33 1215.4 1241.33 1215.4L1264.33 1204.4C1055.83 1002.4 683.626 1090.4 683.626 1090.4Z" fill="#F8D18E"/>
<path d="M698.226 959.1C698.526 959.1 698.926 959.2 699.226 959.2C698.826 959.2 698.526 959.1 698.226 959.1Z" fill="white"/>
<path d="M700.426 959.3C700.826 959.3 701.326 959.4 701.726 959.4C701.326 959.4 700.926 959.3 700.426 959.3Z" fill="white"/>
<path d="M588.325 1028.3L662.125 1051.7L676.125 1014.4L606.125 996.4L588.325 1028.3Z" fill="white"/>
<path d="M693.426 958.8C693.826 958.8 694.226 958.9 694.626 958.9C694.126 958.8 693.826 958.8 693.426 958.8Z" fill="white"/>
<path d="M695.825 958.9C696.125 958.9 696.525 959 696.825 959C696.525 959 696.125 959 695.825 958.9Z" fill="white"/>
<path d="M696.825 959C697.325 959 697.725 959.1 698.225 959.1C697.725 959.1 697.325 959.1 696.825 959Z" fill="white"/>
<path d="M691.125 958.6C691.925 958.7 692.625 958.7 693.425 958.7C692.625 958.7 691.825 958.7 691.125 958.6Z" fill="white"/>
<path d="M694.525 958.9C694.925 958.9 695.325 959 695.825 959C695.425 958.9 694.925 958.9 694.525 958.9Z" fill="white"/>
<path d="M15.2256 1084.3C15.2256 1084.3 23.5256 1099.4 37.8256 1090.4C37.8256 1090.4 108.126 1039.4 135.126 1038.4L408.126 991.4L377.126 956.4L175.126 954.4L15.2256 1063.9V1084.3Z" fill="#DBDBE2"/>
<path d="M0.125488 1090.4L5.12549 1095.4C5.12549 1095.4 145.125 912.4 551.125 1004.4L658.826 1030.8V1023.1C658.826 1023.1 244.125 846.4 0.125488 1090.4Z" fill="#E4E3EB"/>
<path d="M696.225 1069.2C688.725 1071.5 683.725 1073 683.625 1073C688.425 1072 692.625 1070.6 696.225 1069.2Z" fill="white"/>
<path d="M696.226 1069.2C717.926 1062.6 761.126 1049.7 771.326 1047.4C748.526 1051.9 728.326 1056.7 712.026 1060.9C712.026 1061 706.426 1065.3 696.226 1069.2Z" fill="#E4E3EB"/>
<path d="M1272.43 1050.4L1108.43 904.4H831.125L684.026 953.9L662.125 1004.4L662.026 1009.2L660.125 1074.4L665.425 1074.5C665.425 1074.5 671.925 1072.3 683.625 1068.8C683.625 1071.4 683.526 1073 683.526 1073C683.626 1073 688.525 1071.5 696.125 1069.2C706.325 1065.3 711.925 1060.9 711.925 1060.9C728.325 1056.7 748.425 1051.9 771.225 1047.4C872.225 1027.5 1027.13 1012.5 1151.23 1068.5C1151.23 1068.5 1244.43 1117.4 1270.43 1145.4L1283.43 1159.4C1283.43 1159.4 1292.43 1172.4 1295.43 1165.4C1295.43 1165.4 1294.43 1103.4 1272.43 1050.4Z" fill="#E4E3EB"/>
<path d="M610.525 1063.5C610.425 1063.5 610.425 1063.4 610.325 1063.4C610.425 1063.5 610.425 1063.5 610.525 1063.5Z" fill="white"/>
<path d="M665.426 1074.5L660.126 1074.4L662.026 1009.2H642.426C642.426 1009.2 623.326 1011.5 601.626 1014.9C268.226 903.7 58.1256 1079.4 58.1256 1079.4C41.1256 1096.4 46.1256 1137.4 46.1256 1137.4C49.1256 1159.4 67.1256 1145.4 67.1256 1145.4C272.426 1032.4 459.126 1034.5 565.826 1050.1C578.526 1052.3 593.826 1056 606.826 1061.8C608.026 1062.3 609.226 1062.9 610.326 1063.5C610.426 1063.5 610.426 1063.6 610.526 1063.6C641.026 1077.5 666.026 1077.1 683.626 1073.1C683.626 1073.1 683.626 1071.4 683.726 1068.9C671.926 1072.3 665.426 1074.5 665.426 1074.5Z" fill="#E4E3EB"/>
<path d="M659.125 1022.4L658.825 929.2C658.825 929.2 857.125 717.4 1141.13 811.4C1141.13 811.4 1157.13 809.4 1206.13 872.4C1206.13 872.4 1302.13 995.4 1312.13 1054.4C1312.13 1054.4 1315.13 1067.4 1309.13 1062.4C1303.13 1057.4 1016.43 819 659.125 1022.4Z" fill="#FBFBFB"/>
<path d="M662.125 1029.4C662.125 1029.4 931.125 852.4 1254.13 1023.4C1254.13 1023.4 1279.13 1039.4 1296.13 1052.4L1309.13 1062.4C1309.13 1062.4 1306.13 1070.4 1298.13 1069.4C1298.13 1069.4 1034.13 868.4 662.125 1029.4Z" fill="#E7EAEC"/>
<path d="M655.425 1021.9C655.425 1021.9 659.125 1023.6 661.625 1021L662.425 957.7L655.425 953.9L650.625 959.1L655.425 1021.9Z" fill="#FBFBFB"/>
<path d="M106.226 1073.1C106.226 1073.1 315.326 939.5 646.226 1036C646.226 1036 658.426 1039.6 658.726 1045C658.726 1045 415.726 942.8 116.926 1073.1L106.126 1078.4C106.126 1078.4 100.426 1079.7 106.226 1073.1Z" fill="#DBDBE2"/>
<path d="M663.425 1049.7C663.425 1049.7 1032.93 884.4 1288.23 1105.9C1288.23 1105.9 1291.73 1108.4 1292.03 1115.9C1292.03 1115.9 1298.13 1154.4 1296.73 1161.9C1296.73 1161.9 1297.03 1173.4 1284.73 1157.4C1272.43 1141.4 1284.03 1156.8 1284.03 1156.8C1284.03 1156.8 1055.93 969.9 691.225 1069.1C691.225 1069.1 675.425 1072.3 661.425 1072.3H660.125V1052C660.125 1052.1 661.425 1050.1 663.425 1049.7Z" fill="#DBDBE2"/>
<path d="M46.1256 1137.4C46.1256 1137.4 377.126 959.8 629.426 1058.4C629.426 1058.4 646.926 1065.5 658.826 1065.7V1074.4C658.826 1074.4 471.426 968.9 154.526 1095.4L47.2256 1142.4C47.2256 1142.4 45.6256 1138.9 46.1256 1137.4Z" fill="#DBDBE2"/>
<path d="M676.125 1062.6C676.125 1062.6 875.126 996.4 1057.03 1034.4C1057.03 1034.4 1208.13 1066.4 1248.13 1118.4C1248.13 1118.4 1058.13 957.8 676.125 1062.6Z" fill="#CCCEE3"/>
<path d="M650.625 1019.8C645.125 971.2 584.025 963.4 584.025 963.4L650.625 922C604.625 883.3 371.325 705.1 132.125 849.4C132.125 849.4 108.125 858.4 89.1254 894.4C89.1254 894.4 -3.87457 1081.4 0.125429 1090.4C0.125429 1090.4 130.125 942.4 441.125 981.4C441.125 981.4 545.925 994.2 650.625 1021V1019.8Z" fill="#FBFBFB"/>
<path d="M650.625 922.1C656.025 926.6 658.826 929.2 658.826 929.2V1022.8C658.826 1022.8 660.225 1022.5 661.625 1021.4C663.125 1020.3 665.625 1018.7 665.625 1018.7C665.625 1018.7 692.725 976.2 748.925 965.8L756.125 943.4L650.625 922.1Z" fill="#F3F3F3"/>
<path d="M650.625 922.1L584.025 963.5C584.025 963.5 645.125 971.3 650.625 1019.9V1021.1C652.925 1021.7 655.225 1022.3 657.525 1022.9C658.125 1023 658.525 1023 658.825 1022.9V929.3C658.825 929.2 655.925 926.6 650.625 922.1Z" fill="#F3F3F3"/>
<path d="M424.125 948.9C426.125 952.4 412.725 982.7 558.925 978C558.925 978 635.325 980.4 642.225 996.4C649.125 1012.4 642.225 992.5 642.225 992.5L703.326 983.6C703.326 983.6 752.825 950.5 789.425 954.5C826.025 958.5 799.026 912.5 799.026 912.5L729.026 883.5L424.125 948.9Z" fill="#F3F3F3"/>
<path d="M1054.13 639.4C993.125 446.5 845.625 385.2 749.625 366C749.525 366 749.425 366 749.425 366C739.225 364 729.625 362.4 720.825 361.2C628.425 348.4 567.925 366.1 567.925 366.1C472.025 385.4 324.525 446.7 263.425 639.5C263.425 639.5 160.425 900.5 382.425 961.5C382.425 961.5 453.425 982.5 596.425 957.5C596.425 957.5 604.325 956.5 615.425 955.5C615.425 955.5 631.325 953.9 655.025 953.7C657.425 953.7 659.925 953.7 662.425 953.7C671.125 953.8 680.625 954 690.625 954.6C690.825 954.6 690.925 954.6 691.125 954.6C691.925 954.7 692.625 954.7 693.425 954.7C693.825 954.7 694.225 954.8 694.625 954.8C695.025 954.8 695.425 954.9 695.925 954.9C696.225 954.9 696.625 955 696.925 955C697.425 955 697.825 955.1 698.325 955.1C698.625 955.1 699.025 955.2 699.325 955.2C699.725 955.2 700.125 955.3 700.625 955.3C701.025 955.3 701.525 955.4 701.925 955.4C702.025 955.4 702.125 955.4 702.225 955.4C713.425 956.3 721.225 957.4 721.225 957.4C864.225 982.4 935.225 961.4 935.225 961.4C1157.13 900.4 1054.13 639.4 1054.13 639.4Z" fill="#A590FF"/>
<path d="M923.825 606.5C883.925 537.7 812.025 511.4 753.225 502L753.925 501.5C635.625 486.4 568.325 501.3 567.625 501.5C508.225 510.5 434.325 536.4 393.625 606.5C393.625 606.5 345.025 712.1 402.125 747.3C402.125 747.3 438.525 766.7 529.625 761.9C601.825 758.1 644.225 757.2 658.725 757.1C673.225 757.3 715.625 758.1 787.825 761.9C878.825 766.8 915.325 747.3 915.325 747.3C972.425 712.1 923.825 606.5 923.825 606.5Z" fill="#4E4E4E"/>
<path d="M543.026 691.8C563.791 691.8 580.626 664.086 580.626 629.9C580.626 595.714 563.791 568 543.026 568C522.26 568 505.426 595.714 505.426 629.9C505.426 664.086 522.26 691.8 543.026 691.8Z" fill="#7CDEB5"/>
<path d="M774.526 691.8C795.291 691.8 812.126 664.086 812.126 629.9C812.126 595.714 795.291 568 774.526 568C753.76 568 736.926 595.714 736.926 629.9C736.926 664.086 753.76 691.8 774.526 691.8Z" fill="#7CDEB5"/>
<path d="M524.125 129.4C524.125 129.4 637.125 114.4 664.125 169.4C664.125 169.4 681.125 202.4 650.125 234.4C650.125 234.4 639.125 245.4 674.125 240.4C674.125 240.4 702.125 235.4 711.125 251.4C711.125 251.4 728.125 274.4 657.125 313.4C657.125 313.4 608.125 341.4 622.125 364.4" stroke="#68686B" stroke-width="11" stroke-miterlimit="10"/>
<path d="M492.825 166C538.665 166 575.825 128.84 575.825 83C575.825 37.1604 538.665 0 492.825 0C446.986 0 409.825 37.1604 409.825 83C409.825 128.84 446.986 166 492.825 166Z" fill="#99BED5"/>
<path d="M460.625 73.4001C470.732 73.4001 478.925 65.2069 478.925 55.1001C478.925 44.9932 470.732 36.8 460.625 36.8C450.519 36.8 442.325 44.9932 442.325 55.1001C442.325 65.2069 450.519 73.4001 460.625 73.4001Z" fill="white"/>
</svg>
