<svg width="788" height="865" viewBox="0 0 788 865" fill="none" xmlns="http://www.w3.org/2000/svg">
<g clip-path="url(#clip0_122_594)">
<path d="M395.09 133C395.09 133 392.73 149 405.73 156C418.73 163 439.73 175 439.73 175C439.73 175 449.73 180 449.73 187C449.73 187 450.73 191 440.73 197L395.73 224C395.73 224 383.73 231 383.73 238C383.73 245 391.73 250 391.73 250C391.73 250 424.73 273 421.73 293C421.73 293 418.73 307 414.73 311" stroke="#68686B" stroke-width="7" stroke-miterlimit="10"/>
<path d="M763.72 508C689.72 307 413.06 304.12 413.06 304.12H374.38C374.38 304.12 97.72 307 23.72 508C23.72 508 -92.28 806 188.72 860C188.72 860 232.7 870 322.21 860C322.21 860 371.72 854 393.72 857C415.72 854 465.23 860 465.23 860C554.74 870 598.72 860 598.72 860C879.72 806 763.72 508 763.72 508Z" fill="#A590FF"/>
<path d="M649.22 525.5C630.86 472.1 583.26 442.89 534.02 426.99L534.2 426.69C382.7 380.38 252.4 426.68 252.37 426.69C202.79 442.53 154.7 471.76 136.22 525.51C136.22 525.51 89.22 662.51 188.22 692.51C188.22 692.51 226.72 706.01 293.22 695.51C293.22 695.51 300.4 694.74 311.38 693.81C311.38 693.81 339.12 689.57 389.09 689.73V689.75L394.96 689.77C417.34 689.99 443.84 691.1 474.05 693.81C485.03 694.74 492.21 695.51 492.21 695.51C558.71 706.01 597.21 692.51 597.21 692.51C696.21 662.51 649.21 525.51 649.21 525.51L649.22 525.5Z" fill="#4E4E4E"/>
<path d="M589.2 526.22C589.2 526.22 515.17 544.67 479.2 579.88C479.2 579.88 553.62 601.48 588.05 624.47" stroke="#7CDEB5" stroke-width="21" stroke-linecap="round" stroke-linejoin="round"/>
<path d="M196.25 526.22C196.25 526.22 270.28 544.67 306.25 579.88C306.25 579.88 231.83 601.48 197.4 624.47" stroke="#7CDEB5" stroke-width="21" stroke-linecap="round" stroke-linejoin="round"/>
<path d="M392.72 138C430.828 138 461.72 107.108 461.72 69C461.72 30.8924 430.828 0 392.72 0C354.612 0 323.72 30.8924 323.72 69C323.72 107.108 354.612 138 392.72 138Z" fill="#99BED5"/>
<path d="M367.72 66C378.213 66 386.72 57.4934 386.72 47C386.72 36.5066 378.213 28 367.72 28C357.227 28 348.72 36.5066 348.72 47C348.72 57.4934 357.227 66 367.72 66Z" fill="white"/>
</g>
<defs>
<clipPath id="clip0_122_594">
<rect width="787.45" height="864.44" fill="white"/>
</clipPath>
</defs>
</svg>
