<svg width="60" height="60" viewBox="0 0 60 60" fill="none" xmlns="http://www.w3.org/2000/svg">
<g clip-path="url(#clip0_218_379)">
<mask id="mask0_218_379" style="mask-type:luminance" maskUnits="userSpaceOnUse" x="0" y="0" width="60" height="60">
<path d="M60 0H0V60H60V0Z" fill="white"/>
</mask>
<g mask="url(#mask0_218_379)">
<mask id="mask1_218_379" style="mask-type:luminance" maskUnits="userSpaceOnUse" x="0" y="0" width="60" height="60">
<path d="M60 0H0V60H60V0Z" fill="white"/>
</mask>
<g mask="url(#mask1_218_379)">
<path opacity="0.5" d="M55 20.6364H5.00003V43.1364C5.00003 45.1256 5.79021 47.0332 7.19673 48.4397C8.60326 49.8463 10.5109 50.6364 12.5 50.6364H47.5C49.4891 50.6364 51.3968 49.8463 52.8033 48.4397C54.2099 47.0332 55 45.1256 55 43.1364V20.6364ZM17.5 15.6364C16.837 15.6364 16.2011 15.373 15.7322 14.9042C15.2634 14.4353 15 13.7995 15 13.1364V3.13641C15 2.47337 15.2634 1.83749 15.7322 1.36865C16.2011 0.899806 16.837 0.636414 17.5 0.636414C18.1631 0.636414 18.799 0.899806 19.2677 1.36865C19.7366 1.83749 20 2.47337 20 3.13641V13.1364C20 13.7995 19.7366 14.4353 19.2677 14.9042C18.799 15.373 18.1631 15.6364 17.5 15.6364ZM42.5 15.6364C41.837 15.6364 41.2011 15.373 40.7322 14.9042C40.2634 14.4353 40 13.7995 40 13.1364V3.13641C40 2.47337 40.2634 1.83749 40.7322 1.36865C41.2011 0.899806 41.837 0.636414 42.5 0.636414C43.163 0.636414 43.7989 0.899806 44.2678 1.36865C44.7366 1.83749 45 2.47337 45 3.13641V13.1364C45 13.7995 44.7366 14.4353 44.2678 14.9042C43.7989 15.373 43.163 15.6364 42.5 15.6364Z" fill="#36B7DA"/>
<path d="M47.5 5.63632H45V13.1363C45 13.7993 44.7366 14.4352 44.2678 14.9041C43.7989 15.3729 43.163 15.6363 42.5 15.6363C41.837 15.6363 41.2011 15.3729 40.7322 14.9041C40.2634 14.4352 40 13.7993 40 13.1363V5.63632H20V13.1363C20 13.7993 19.7366 14.4352 19.2677 14.9041C18.799 15.3729 18.1631 15.6363 17.5 15.6363C16.837 15.6363 16.2011 15.3729 15.7322 14.9041C15.2634 14.4352 15 13.7993 15 13.1363V5.63632H12.5C10.5109 5.63632 8.60326 6.42649 7.19673 7.83302C5.79021 9.23954 5.00003 11.1472 5.00003 13.1363V20.6363H55V13.1363C55 11.1472 54.2099 9.23954 52.8033 7.83302C51.3968 6.42649 49.4891 5.63632 47.5 5.63632Z" fill="#226FA9"/>
<path d="M15 30.7793C15.7101 30.7793 16.2857 30.2036 16.2857 29.4935C16.2857 28.7834 15.7101 28.2078 15 28.2078C14.2899 28.2078 13.7142 28.7834 13.7142 29.4935C13.7142 30.2036 14.2899 30.7793 15 30.7793Z" fill="black"/>
<path d="M45.8571 28.2079H21C20.2899 28.2079 19.7142 28.7834 19.7142 29.4935C19.7142 30.2037 20.2899 30.7792 21 30.7792H45.8571C46.5672 30.7792 47.1429 30.2037 47.1429 29.4935C47.1429 28.7834 46.5672 28.2079 45.8571 28.2079Z" fill="black"/>
<path d="M15 41.065C15.7101 41.065 16.2857 40.4893 16.2857 39.7792C16.2857 39.0692 15.7101 38.4935 15 38.4935C14.2899 38.4935 13.7142 39.0692 13.7142 39.7792C13.7142 40.4893 14.2899 41.065 15 41.065Z" fill="black"/>
<path d="M45.8571 38.4936H21C20.2899 38.4936 19.7142 39.0693 19.7142 39.7793C19.7142 40.4894 20.2899 41.065 21 41.065H45.8571C46.5672 41.065 47.1429 40.4894 47.1429 39.7793C47.1429 39.0693 46.5672 38.4936 45.8571 38.4936Z" fill="black"/>
</g>
</g>
</g>
<defs>
<clipPath id="clip0_218_379">
<rect width="60" height="60" fill="white"/>
</clipPath>
</defs>
</svg>
