<svg width="71" height="78" viewBox="0 0 71 78" fill="none" xmlns="http://www.w3.org/2000/svg">
<path d="M36.207 0C35.7665 0 35.3261 0.38631 35.0618 0.869197L26.7808 18.3497C26.6047 18.8326 26.1642 19.2189 25.6356 19.2189H13.2142C5.90236 19.2189 0 25.6896 0 33.7055V76.2962C0 76.7791 0.35238 77.1654 0.792854 77.1654H69.595C70.0354 77.1654 70.3878 76.7791 70.3878 76.2962V20.1847C70.3878 19.6052 70.0354 19.3155 69.595 19.3155H62.4593C62.0188 19.3155 61.5783 18.9292 61.314 18.4463L53.0331 0.965775C52.7688 0.482887 52.4165 0.0965775 51.8879 0.0965775H35.9427L36.207 0ZM13.3904 28.9732C15.8571 28.9732 17.7952 31.098 17.7952 33.8021C17.7952 36.5063 15.8571 38.631 13.3904 38.631C10.9238 38.631 8.98568 36.5063 8.98568 33.8021C8.98568 31.098 10.9238 28.9732 13.3904 28.9732ZM44.2236 28.9732C53.9141 28.9732 61.8426 37.6652 61.8426 48.2887C61.8426 58.9123 53.9141 67.6042 44.2236 67.6042C34.5332 67.6042 26.6047 58.9123 26.6047 48.2887C26.6047 37.6652 34.5332 28.9732 44.2236 28.9732ZM44.2236 38.631C39.3784 38.631 35.4141 42.977 35.4141 48.2887C35.4141 53.6005 39.3784 57.9465 44.2236 57.9465C49.0689 57.9465 53.0331 53.6005 53.0331 48.2887C53.0331 42.977 49.0689 38.631 44.2236 38.631Z" fill="#2859C5"/>
</svg>
