<svg width="71" height="80" viewBox="0 0 71 80" fill="none" xmlns="http://www.w3.org/2000/svg">
<path d="M22.4091 19.8744C22.4091 22.1328 21.728 24.2986 20.5158 25.8955C19.3035 27.4924 17.6593 28.3895 15.9449 28.3895C14.2305 28.3895 12.5863 27.4924 11.374 25.8955C10.1618 24.2986 9.48071 22.1328 9.48071 19.8744C9.48071 17.616 10.1618 15.4502 11.374 13.8533C12.5863 12.2564 14.2305 11.3593 15.9449 11.3593C17.6593 11.3593 19.3035 12.2564 20.5158 13.8533C21.728 15.4502 22.4091 17.616 22.4091 19.8744Z" fill="#2859C5"/>
<path d="M8.79848 0C6.46498 0 4.22705 1.19617 2.57701 3.32537C0.92698 5.45456 0 8.34237 0 11.3535V68.1211C0 71.1322 0.92698 74.02 2.57701 76.1492C4.22705 78.2784 6.46498 79.4746 8.79848 79.4746H61.5893C63.9228 79.4746 66.1608 78.2784 67.8108 76.1492C69.4608 74.02 70.3878 71.1322 70.3878 68.1211V11.3535C70.3878 8.34237 69.4608 5.45456 67.8108 3.32537C66.1608 1.19617 63.9228 0 61.5893 0H8.79848ZM61.5893 5.67675C62.7561 5.67675 63.8751 6.27484 64.7001 7.33944C65.5251 8.40404 65.9886 9.84794 65.9886 11.3535V48.2524L49.3727 37.1998C48.9601 36.9331 48.493 36.8406 48.0375 36.9353C47.5819 37.0301 47.161 37.3073 46.8343 37.7277L30.5131 58.7885L18.8111 48.7293C18.3886 48.3663 17.8819 48.203 17.3767 48.2672C16.8716 48.3313 16.3992 48.6189 16.0396 49.0812L4.39924 62.4443V11.3535C4.39924 9.84794 4.86273 8.40404 5.68775 7.33944C6.51276 6.27484 7.63173 5.67675 8.79848 5.67675H61.5893Z" fill="#2859C5"/>
</svg>
