<svg width="41" height="56" viewBox="0 0 41 56" fill="none" xmlns="http://www.w3.org/2000/svg">
<g clip-path="url(#clip0_257_340)">
<path d="M2.87305 26.0496C2.87305 30.8413 4.38648 35.4367 7.08042 38.8249C9.77435 42.2131 13.4281 44.1166 17.2379 44.1166C21.0477 44.1166 24.7015 42.2131 27.3954 38.8249C30.0893 35.4367 31.6028 30.8413 31.6028 26.0496C31.6028 21.258 30.0893 16.6626 27.3954 13.2744C24.7015 9.88614 21.0477 7.98267 17.2379 7.98267C13.4281 7.98267 9.77435 9.88614 7.08042 13.2744C4.38648 16.6626 2.87305 21.258 2.87305 26.0496Z" fill="#8FBFFA"/>
<path fill-rule="evenodd" clip-rule="evenodd" d="M5.74594 26.0495C5.74594 18.0671 10.891 11.596 17.2378 11.596C23.5846 11.596 28.7297 18.0671 28.7297 26.0495C28.7297 34.032 23.5846 40.503 17.2378 40.503C10.891 40.503 5.74594 34.032 5.74594 26.0495ZM17.2378 4.36926C7.71764 4.36926 0 14.0758 0 26.0495C0 38.0232 7.71764 47.7298 17.2378 47.7298C20.9606 47.7298 24.4077 46.2454 27.2255 43.7218L35.3172 53.8989C36.4391 55.3099 38.2582 55.3099 39.3801 53.8989C40.502 52.4879 40.502 50.1999 39.3801 48.7889L31.2887 38.612C33.2954 35.0678 34.4757 30.732 34.4757 26.0495C34.4757 14.0758 26.758 4.36926 17.2378 4.36926Z" fill="#2859C5"/>
</g>
<g clip-path="url(#clip1_257_340)">
<path fill-rule="evenodd" clip-rule="evenodd" d="M21.1449 18.844C21.5656 18.2633 22.2478 18.2633 22.6685 18.844L24.8232 21.8178C25.2439 22.3985 25.2439 23.3399 24.8232 23.9206C24.4025 24.5013 23.7203 24.5013 23.2996 23.9206L21.9067 21.9982L20.7369 23.6127L22.1298 25.5351C22.5505 26.1158 22.5505 27.0572 22.1298 27.6379C21.7091 28.2186 21.0269 28.2186 20.6062 27.6379L19.2133 25.7155L18.0779 27.2824C18.457 28.1679 18.6746 29.2008 18.6746 30.3038C18.6746 33.5886 16.7452 36.2515 14.3651 36.2515C11.9851 36.2515 10.0557 33.5886 10.0557 30.3038C10.0557 27.019 11.9851 24.3561 14.3651 24.3561C15.1643 24.3561 15.9127 24.6564 16.5543 25.1796L18.4476 22.5666L18.4514 22.5613L18.4553 22.5559L21.1449 18.844ZM12.2104 30.3038C12.2104 28.6614 13.1751 27.33 14.3651 27.33C15.5551 27.33 16.5199 28.6614 16.5199 30.3038C16.5199 31.9463 15.5551 33.2776 14.3651 33.2776C13.1751 33.2776 12.2104 31.9463 12.2104 30.3038Z" fill="#FFE665"/>
</g>
<path fill-rule="evenodd" clip-rule="evenodd" d="M21.1444 18.8535C21.5651 18.2728 22.2473 18.2728 22.668 18.8535L24.8227 21.8273C25.2434 22.408 25.2434 23.3495 24.8227 23.9301C24.402 24.5108 23.7198 24.5108 23.2991 23.9301L21.9062 22.0077L20.7364 23.6222L22.1293 25.5446C22.55 26.1253 22.55 27.0668 22.1293 27.6474C21.7086 28.2281 21.0264 28.2281 20.6057 27.6474L19.2128 25.725L18.0774 27.292C18.4565 28.1774 18.6741 29.2103 18.6741 30.3133C18.6741 33.5981 16.7447 36.261 14.3646 36.261C11.9846 36.261 10.0552 33.5981 10.0552 30.3133C10.0552 27.0285 11.9846 24.3656 14.3646 24.3656C15.1638 24.3656 15.9122 24.6659 16.5538 25.1891L18.4471 22.5762L18.451 22.5708L18.4549 22.5654L21.1444 18.8535ZM12.2099 30.3133C12.2099 28.6709 13.1746 27.3395 14.3646 27.3395C15.5547 27.3395 16.5194 28.6709 16.5194 30.3133C16.5194 31.9558 15.5547 33.2872 14.3646 33.2872C13.1746 33.2872 12.2099 31.9558 12.2099 30.3133Z" fill="#FFE665"/>
<defs>
<clipPath id="clip0_257_340">
<rect width="40.2216" height="55.5117" fill="white"/>
</clipPath>
<clipPath id="clip1_257_340">
<rect width="15.0831" height="20.8169" fill="white" transform="translate(10.0557 12.4806)"/>
</clipPath>
</defs>
</svg>
