<svg width="50" height="50" viewBox="0 0 50 50" fill="none" xmlns="http://www.w3.org/2000/svg">
<path d="M19.5763 22.7383C19.8317 22.4824 20.178 22.3386 20.5392 22.3386H31.4325C31.7937 22.3386 32.14 22.4824 32.3954 22.7383C32.6507 22.9942 32.7942 23.3413 32.7942 23.7033C32.7942 24.0652 32.6507 24.4123 32.3954 24.6682C32.14 24.9242 31.7937 25.0679 31.4325 25.0679H26.1325H20.5392C20.178 25.0679 19.8317 24.9242 19.5763 24.6682C19.321 24.4123 19.1775 24.0652 19.1775 23.7033C19.1775 23.3413 19.321 22.9942 19.5763 22.7383Z" fill="black"/>
<path d="M19.4623 10.3514C19.7177 10.0954 20.064 9.95166 20.4251 9.95166H31.3185C31.6796 9.95166 32.026 10.0954 32.2813 10.3514C32.5367 10.6073 32.6802 10.9544 32.6802 11.3163C32.6802 11.6783 32.5367 12.0254 32.2813 12.2813C32.026 12.5372 31.6796 12.681 31.3185 12.681H20.4251C20.064 12.681 19.7177 12.5372 19.4623 12.2813C19.2069 12.0254 19.0635 11.6783 19.0635 11.3163C19.0635 10.9544 19.2069 10.6073 19.4623 10.3514Z" fill="black"/>
<path d="M19.4623 16.3979C19.7177 16.1419 20.064 15.9982 20.4251 15.9982H31.3185C31.6796 15.9982 32.026 16.1419 32.2813 16.3979C32.5367 16.6538 32.6802 17.0009 32.6802 17.3628C32.6802 17.7248 32.5367 18.0719 32.2813 18.3278C32.026 18.5837 31.6796 18.7275 31.3185 18.7275H26.0185H20.4251C20.064 18.7275 19.7177 18.5837 19.4623 18.3278C19.2069 18.0719 19.0635 17.7248 19.0635 17.3628C19.0635 17.0009 19.2069 16.6538 19.4623 16.3979Z" fill="black"/>
<path d="M19.5763 28.7848C19.8317 28.5289 20.178 28.3851 20.5392 28.3851H31.4325C31.7937 28.3851 32.14 28.5289 32.3954 28.7848C32.6507 29.0407 32.7942 29.3878 32.7942 29.7498C32.7942 30.1117 32.6507 30.4588 32.3954 30.7147C32.14 30.9707 31.7937 31.1144 31.4325 31.1144H26.1325H20.5392C20.178 31.1144 19.8317 30.9707 19.5763 30.7147C19.321 30.4588 19.1775 30.1117 19.1775 29.7498C19.1775 29.3878 19.321 29.0407 19.5763 28.7848Z" fill="black"/>
<path d="M19.8611 35.0211C20.1165 34.7652 20.4628 34.6214 20.824 34.6214H31.7173C32.0785 34.6214 32.4248 34.7652 32.6802 35.0211C32.9355 35.277 33.079 35.6241 33.079 35.986C33.079 36.348 32.9355 36.6951 32.6802 36.951C32.4248 37.2069 32.0785 37.3507 31.7173 37.3507H26.4173H20.824C20.4628 37.3507 20.1165 37.2069 19.8611 36.951C19.6058 36.6951 19.4623 36.348 19.4623 35.986C19.4623 35.6241 19.6058 35.277 19.8611 35.0211Z" fill="black"/>
<path fill-rule="evenodd" clip-rule="evenodd" d="M7.91846 15.7102C7.91846 15.5193 7.99413 15.3362 8.12883 15.2012C8.26352 15.0662 8.44621 14.9904 8.6367 14.9904H12.2279C12.4184 14.9904 12.6011 15.0662 12.7358 15.2012C12.8705 15.3362 12.9462 15.5193 12.9462 15.7102V19.3093C12.9462 19.5002 12.8705 19.6833 12.7358 19.8183C12.6011 19.9533 12.4184 20.0291 12.2279 20.0291H8.6367C8.44621 20.0291 8.26352 19.9533 8.12883 19.8183C7.99413 19.6833 7.91846 19.5002 7.91846 19.3093V15.7102ZM9.35494 16.43V18.5895H11.5097V16.43H9.35494Z" fill="black"/>
<path fill-rule="evenodd" clip-rule="evenodd" d="M7.91846 21.7567C7.91846 21.5658 7.99413 21.3827 8.12883 21.2477C8.26352 21.1127 8.44621 21.0369 8.6367 21.0369H12.2279C12.4184 21.0369 12.6011 21.1127 12.7358 21.2477C12.8705 21.3827 12.9462 21.5658 12.9462 21.7567V25.3558C12.9462 25.5467 12.8705 25.7298 12.7358 25.8648C12.6011 25.9998 12.4184 26.0756 12.2279 26.0756H8.6367C8.44621 26.0756 8.26352 25.9998 8.12883 25.8648C7.99413 25.7298 7.91846 25.5467 7.91846 25.3558V21.7567ZM9.35494 22.4765V24.636H11.5097V22.4765H9.35494Z" fill="black"/>
<path d="M13.7393 9.26994C13.8771 9.12149 13.9534 8.92267 13.9517 8.71629C13.9499 8.50992 13.8704 8.3125 13.7301 8.16657C13.5899 8.02064 13.4001 7.93786 13.2018 7.93606C13.0034 7.93427 12.8124 8.01361 12.6697 8.15698L10.1786 10.7489L9.20047 9.73118C9.0578 9.5878 8.86671 9.50846 8.66836 9.51026C8.47002 9.51205 8.28028 9.59483 8.14002 9.74076C7.99977 9.8867 7.92021 10.0841 7.91849 10.2905C7.91676 10.4969 7.99301 10.6957 8.13081 10.8441L10.1786 12.9748L13.7393 9.26994Z" fill="black"/>
<path fill-rule="evenodd" clip-rule="evenodd" d="M5.44668 0C4.00213 0 2.61674 0.575108 1.59529 1.59881C0.573844 2.62251 0 4.01094 0 5.45867V43.6694C0 45.1171 0.573844 46.5055 1.59529 47.5292C2.61674 48.5529 4.00213 49.128 5.44668 49.128H32.6801C34.1246 49.128 35.51 48.5529 36.5314 47.5292C37.5529 46.5055 38.1267 45.1171 38.1267 43.6694V5.45867C38.1267 4.01094 37.5529 2.62251 36.5314 1.59881C35.51 0.575108 34.1246 0 32.6801 0H5.44668ZM2.72334 5.45867C2.72334 4.7348 3.01026 4.04059 3.52099 3.52874C4.03171 3.01689 4.7244 2.72933 5.44668 2.72933H32.6801C33.4023 2.72933 34.095 3.01689 34.6057 3.52874C35.1165 4.04059 35.4034 4.7348 35.4034 5.45867V43.6694C35.4034 44.3932 35.1165 45.0874 34.6057 45.5993C34.095 46.1111 33.4023 46.3987 32.6801 46.3987H5.44668C4.7244 46.3987 4.03171 46.1111 3.52099 45.5993C3.01026 45.0874 2.72334 44.3932 2.72334 43.6694V5.45867ZM40.8501 13.6467C40.8501 12.5609 41.2805 11.5196 42.0465 10.7518C42.8126 9.984 43.8517 9.55267 44.9351 9.55267C46.0185 9.55267 47.0575 9.984 47.8236 10.7518C48.5897 11.5196 49.0201 12.5609 49.0201 13.6467V41.3535L44.9351 47.4945L40.8501 41.3535V13.6467ZM44.9351 12.282C44.5739 12.282 44.2276 12.4258 43.9722 12.6817C43.7169 12.9376 43.5734 13.2847 43.5734 13.6467V16.376H46.2967V13.6467C46.2967 13.2847 46.1533 12.9376 45.8979 12.6817C45.6426 12.4258 45.2962 12.282 44.9351 12.282ZM44.9351 42.5735L43.5734 40.5265V19.1053H46.2967V40.5265L44.9351 42.5735Z" fill="black"/>
<path fill-rule="evenodd" clip-rule="evenodd" d="M7.91895 27.8032C7.91895 27.6123 7.99462 27.4292 8.12931 27.2942C8.26401 27.1592 8.4467 27.0834 8.63719 27.0834H12.2284C12.4189 27.0834 12.6016 27.1592 12.7363 27.2942C12.871 27.4292 12.9466 27.6123 12.9466 27.8032V31.4023C12.9466 31.5932 12.871 31.7763 12.7363 31.9113C12.6016 32.0463 12.4189 32.1221 12.2284 32.1221H8.63719C8.4467 32.1221 8.26401 32.0463 8.12931 31.9113C7.99462 31.7763 7.91895 31.5932 7.91895 31.4023V27.8032ZM9.35543 28.523V30.6825H11.5102V28.523H9.35543Z" fill="black"/>
<path fill-rule="evenodd" clip-rule="evenodd" d="M7.91895 33.8498C7.91895 33.6589 7.99462 33.4758 8.12931 33.3408C8.26401 33.2058 8.4467 33.13 8.63719 33.13H12.2284C12.4189 33.13 12.6016 33.2058 12.7363 33.3408C12.871 33.4758 12.9466 33.6589 12.9466 33.8498V37.4489C12.9466 37.6399 12.871 37.8229 12.7363 37.9579C12.6016 38.0929 12.4189 38.1688 12.2284 38.1688H8.63719C8.4467 38.1688 8.26401 38.0929 8.12931 37.9579C7.99462 37.8229 7.91895 37.6399 7.91895 37.4489V33.8498ZM9.35543 34.5697V36.7291H11.5102V34.5697H9.35543Z" fill="black"/>
<path d="M19.5763 22.7383C19.8317 22.4824 20.178 22.3386 20.5392 22.3386H31.4325C31.7937 22.3386 32.14 22.4824 32.3954 22.7383C32.6507 22.9942 32.7942 23.3413 32.7942 23.7033C32.7942 24.0652 32.6507 24.4123 32.3954 24.6682C32.14 24.9242 31.7937 25.0679 31.4325 25.0679H26.1325H20.5392C20.178 25.0679 19.8317 24.9242 19.5763 24.6682C19.321 24.4123 19.1775 24.0652 19.1775 23.7033C19.1775 23.3413 19.321 22.9942 19.5763 22.7383Z" fill="black"/>
<path d="M19.4623 10.3514C19.7177 10.0954 20.064 9.95166 20.4251 9.95166H31.3185C31.6796 9.95166 32.026 10.0954 32.2813 10.3514C32.5367 10.6073 32.6802 10.9544 32.6802 11.3163C32.6802 11.6783 32.5367 12.0254 32.2813 12.2813C32.026 12.5372 31.6796 12.681 31.3185 12.681H20.4251C20.064 12.681 19.7177 12.5372 19.4623 12.2813C19.2069 12.0254 19.0635 11.6783 19.0635 11.3163C19.0635 10.9544 19.2069 10.6073 19.4623 10.3514Z" fill="black"/>
<path d="M19.4623 16.3979C19.7177 16.1419 20.064 15.9982 20.4251 15.9982H31.3185C31.6796 15.9982 32.026 16.1419 32.2813 16.3979C32.5367 16.6538 32.6802 17.0009 32.6802 17.3628C32.6802 17.7248 32.5367 18.0719 32.2813 18.3278C32.026 18.5837 31.6796 18.7275 31.3185 18.7275H26.0185H20.4251C20.064 18.7275 19.7177 18.5837 19.4623 18.3278C19.2069 18.0719 19.0635 17.7248 19.0635 17.3628C19.0635 17.0009 19.2069 16.6538 19.4623 16.3979Z" fill="black"/>
<path d="M19.5763 28.7848C19.8317 28.5289 20.178 28.3851 20.5392 28.3851H31.4325C31.7937 28.3851 32.14 28.5289 32.3954 28.7848C32.6507 29.0407 32.7942 29.3878 32.7942 29.7498C32.7942 30.1117 32.6507 30.4588 32.3954 30.7147C32.14 30.9707 31.7937 31.1144 31.4325 31.1144H26.1325H20.5392C20.178 31.1144 19.8317 30.9707 19.5763 30.7147C19.321 30.4588 19.1775 30.1117 19.1775 29.7498C19.1775 29.3878 19.321 29.0407 19.5763 28.7848Z" fill="black"/>
<path d="M19.8611 35.0211C20.1165 34.7652 20.4628 34.6214 20.824 34.6214H31.7173C32.0785 34.6214 32.4248 34.7652 32.6802 35.0211C32.9355 35.277 33.079 35.6241 33.079 35.986C33.079 36.348 32.9355 36.6951 32.6802 36.951C32.4248 37.2069 32.0785 37.3507 31.7173 37.3507H26.4173H20.824C20.4628 37.3507 20.1165 37.2069 19.8611 36.951C19.6058 36.6951 19.4623 36.348 19.4623 35.986C19.4623 35.6241 19.6058 35.277 19.8611 35.0211Z" fill="black"/>
<path fill-rule="evenodd" clip-rule="evenodd" d="M7.91846 15.7102C7.91846 15.5193 7.99413 15.3362 8.12883 15.2012C8.26352 15.0662 8.44621 14.9904 8.6367 14.9904H12.2279C12.4184 14.9904 12.6011 15.0662 12.7358 15.2012C12.8705 15.3362 12.9462 15.5193 12.9462 15.7102V19.3093C12.9462 19.5002 12.8705 19.6833 12.7358 19.8183C12.6011 19.9533 12.4184 20.0291 12.2279 20.0291H8.6367C8.44621 20.0291 8.26352 19.9533 8.12883 19.8183C7.99413 19.6833 7.91846 19.5002 7.91846 19.3093V15.7102ZM9.35494 16.43V18.5895H11.5097V16.43H9.35494Z" fill="black"/>
<path fill-rule="evenodd" clip-rule="evenodd" d="M7.91846 21.7567C7.91846 21.5658 7.99413 21.3827 8.12883 21.2477C8.26352 21.1127 8.44621 21.0369 8.6367 21.0369H12.2279C12.4184 21.0369 12.6011 21.1127 12.7358 21.2477C12.8705 21.3827 12.9462 21.5658 12.9462 21.7567V25.3558C12.9462 25.5467 12.8705 25.7298 12.7358 25.8648C12.6011 25.9998 12.4184 26.0756 12.2279 26.0756H8.6367C8.44621 26.0756 8.26352 25.9998 8.12883 25.8648C7.99413 25.7298 7.91846 25.5467 7.91846 25.3558V21.7567ZM9.35494 22.4765V24.636H11.5097V22.4765H9.35494Z" fill="black"/>
<path d="M13.7393 9.26994C13.8771 9.12149 13.9534 8.92267 13.9517 8.71629C13.9499 8.50992 13.8704 8.3125 13.7301 8.16657C13.5899 8.02064 13.4001 7.93786 13.2018 7.93606C13.0034 7.93427 12.8124 8.01361 12.6697 8.15698L10.1786 10.7489L9.20047 9.73118C9.0578 9.5878 8.86671 9.50846 8.66836 9.51026C8.47002 9.51205 8.28028 9.59483 8.14002 9.74076C7.99977 9.8867 7.92021 10.0841 7.91849 10.2905C7.91676 10.4969 7.99301 10.6957 8.13081 10.8441L10.1786 12.9748L13.7393 9.26994Z" fill="black"/>
<path fill-rule="evenodd" clip-rule="evenodd" d="M5.44668 0C4.00213 0 2.61674 0.575108 1.59529 1.59881C0.573844 2.62251 0 4.01094 0 5.45867V43.6694C0 45.1171 0.573844 46.5055 1.59529 47.5292C2.61674 48.5529 4.00213 49.128 5.44668 49.128H32.6801C34.1246 49.128 35.51 48.5529 36.5314 47.5292C37.5529 46.5055 38.1267 45.1171 38.1267 43.6694V5.45867C38.1267 4.01094 37.5529 2.62251 36.5314 1.59881C35.51 0.575108 34.1246 0 32.6801 0H5.44668ZM2.72334 5.45867C2.72334 4.7348 3.01026 4.04059 3.52099 3.52874C4.03171 3.01689 4.7244 2.72933 5.44668 2.72933H32.6801C33.4023 2.72933 34.095 3.01689 34.6057 3.52874C35.1165 4.04059 35.4034 4.7348 35.4034 5.45867V43.6694C35.4034 44.3932 35.1165 45.0874 34.6057 45.5993C34.095 46.1111 33.4023 46.3987 32.6801 46.3987H5.44668C4.7244 46.3987 4.03171 46.1111 3.52099 45.5993C3.01026 45.0874 2.72334 44.3932 2.72334 43.6694V5.45867ZM40.8501 13.6467C40.8501 12.5609 41.2805 11.5196 42.0465 10.7518C42.8126 9.984 43.8517 9.55267 44.9351 9.55267C46.0185 9.55267 47.0575 9.984 47.8236 10.7518C48.5897 11.5196 49.0201 12.5609 49.0201 13.6467V41.3535L44.9351 47.4945L40.8501 41.3535V13.6467ZM44.9351 12.282C44.5739 12.282 44.2276 12.4258 43.9722 12.6817C43.7169 12.9376 43.5734 13.2847 43.5734 13.6467V16.376H46.2967V13.6467C46.2967 13.2847 46.1533 12.9376 45.8979 12.6817C45.6426 12.4258 45.2962 12.282 44.9351 12.282ZM44.9351 42.5735L43.5734 40.5265V19.1053H46.2967V40.5265L44.9351 42.5735Z" fill="black"/>
<path fill-rule="evenodd" clip-rule="evenodd" d="M7.91895 27.8032C7.91895 27.6123 7.99462 27.4292 8.12931 27.2942C8.26401 27.1592 8.4467 27.0834 8.63719 27.0834H12.2284C12.4189 27.0834 12.6016 27.1592 12.7363 27.2942C12.871 27.4292 12.9466 27.6123 12.9466 27.8032V31.4023C12.9466 31.5932 12.871 31.7763 12.7363 31.9113C12.6016 32.0463 12.4189 32.1221 12.2284 32.1221H8.63719C8.4467 32.1221 8.26401 32.0463 8.12931 31.9113C7.99462 31.7763 7.91895 31.5932 7.91895 31.4023V27.8032ZM9.35543 28.523V30.6825H11.5102V28.523H9.35543Z" fill="black"/>
<path fill-rule="evenodd" clip-rule="evenodd" d="M7.91895 33.8498C7.91895 33.6589 7.99462 33.4758 8.12931 33.3408C8.26401 33.2058 8.4467 33.13 8.63719 33.13H12.2284C12.4189 33.13 12.6016 33.2058 12.7363 33.3408C12.871 33.4758 12.9466 33.6589 12.9466 33.8498V37.4489C12.9466 37.6399 12.871 37.8229 12.7363 37.9579C12.6016 38.0929 12.4189 38.1688 12.2284 38.1688H8.63719C8.4467 38.1688 8.26401 38.0929 8.12931 37.9579C7.99462 37.8229 7.91895 37.6399 7.91895 37.4489V33.8498ZM9.35543 34.5697V36.7291H11.5102V34.5697H9.35543Z" fill="black"/>
</svg>
