<svg width="60" height="60" viewBox="0 0 60 60" fill="none" xmlns="http://www.w3.org/2000/svg">
<g clip-path="url(#clip0_218_402)">
<mask id="mask0_218_402" style="mask-type:luminance" maskUnits="userSpaceOnUse" x="0" y="0" width="60" height="60">
<path d="M60 0H0V60H60V0Z" fill="white"/>
</mask>
<g mask="url(#mask0_218_402)">
<path fill-rule="evenodd" clip-rule="evenodd" d="M29.4546 3.27271C25.1047 3.27271 20.8744 3.66917 16.8499 4.11801C13.5842 4.49229 10.5421 5.9636 8.22121 8.2913C5.9003 10.619 4.43789 13.6654 4.07315 16.9321C3.64676 20.9342 3.27274 25.1382 3.27274 29.4545C3.27274 33.7708 3.64676 37.9749 4.07315 41.977C4.43789 45.2437 5.9003 48.2901 8.22121 50.6177C10.5421 52.9454 13.5842 54.4167 16.8499 54.791C20.8744 55.2399 25.1047 55.6363 29.4546 55.6363C33.8044 55.6363 38.0347 55.2399 42.0592 54.791C45.3249 54.4167 48.367 52.9454 50.6879 50.6177C53.0088 48.2901 54.4712 45.2437 54.836 41.977C55.2623 37.9749 55.6364 33.7708 55.6364 29.4545C55.6364 25.1382 55.2623 20.9342 54.836 16.9321C54.4712 13.6654 53.0088 10.619 50.6879 8.2913C48.367 5.9636 45.3249 4.49229 42.0592 4.11801C38.0347 3.66917 33.8044 3.27271 29.4546 3.27271Z" fill="#36B7DA"/>
<path d="M29.4546 32.0727C35.3641 32.0727 38.6818 28.7439 38.6818 22.8418C38.6818 16.9321 35.3604 13.6108 29.4546 13.6108C23.5487 13.6108 20.2273 16.9359 20.2273 22.8418C20.2273 28.7476 23.545 32.069 29.4546 32.069V32.0727Z" fill="#226FA9"/>
<path fill-rule="evenodd" clip-rule="evenodd" d="M46.0613 53.7437C46.0226 52.3856 45.8624 51.0338 45.5825 49.7043C44.8045 46.0687 42.71 42.4968 39.8374 40.1479C36.9245 37.7658 33.2772 36.4645 29.5143 36.4645C25.7514 36.4645 22.1042 37.7658 19.1912 40.1479C16.3187 42.4968 14.2242 46.0687 13.4461 49.7043C13.1642 51.0498 13.004 52.418 12.9674 53.7924C14.2071 54.3052 15.5127 54.6414 16.8461 54.791C20.8705 55.2399 25.1046 55.6363 29.4545 55.6363C33.8082 55.6363 38.0384 55.2399 42.0629 54.791C43.4406 54.6376 44.7887 54.2848 46.065 53.7437H46.0613Z" fill="#226FA9"/>
</g>
</g>
<defs>
<clipPath id="clip0_218_402">
<rect width="60" height="60" fill="white"/>
</clipPath>
</defs>
</svg>
