<svg width="60" height="120" viewBox="0 0 60 120" fill="none" xmlns="http://www.w3.org/2000/svg">
<g clip-path="url(#clip0_219_343)">
<mask id="mask0_219_343" style="mask-type:luminance" maskUnits="userSpaceOnUse" x="0" y="0" width="60" height="120">
<path d="M60 0H0V120H60V0Z" fill="white"/>
</mask>
<g mask="url(#mask0_219_343)">
<mask id="mask1_219_343" style="mask-type:luminance" maskUnits="userSpaceOnUse" x="0" y="0" width="60" height="120">
<path d="M60 0H0V120H60V0Z" fill="white"/>
</mask>
<g mask="url(#mask1_219_343)">
<path fill-rule="evenodd" clip-rule="evenodd" d="M29.0635 8.69647C29.4897 8.69647 29.8986 8.91067 30.2 9.29199C30.5014 9.67327 30.6707 10.1904 30.6707 10.7296V17.5068C30.671 17.842 30.6059 18.172 30.481 18.4677C30.3561 18.7633 30.1753 19.0152 29.9549 19.2011L26.7407 21.912C26.3858 22.2111 25.9515 22.3196 25.5334 22.2136C25.1152 22.1076 24.7475 21.7958 24.5111 21.3468C24.2746 20.8978 24.1889 20.3484 24.2727 19.8194C24.3565 19.2904 24.6029 18.8252 24.9578 18.5261L27.4564 16.4198V10.7296C27.4564 10.1904 27.6258 9.67327 27.9272 9.29199C28.2285 8.91067 28.6373 8.69647 29.0635 8.69647Z" fill="#226FA9"/>
<path fill-rule="evenodd" clip-rule="evenodd" d="M30.1928 4.10156C29.8574 4.07808 29.5216 4.06632 29.1857 4.06632C25.5386 4.06632 22.9157 5.35668 21.2036 7.52268C19.4914 9.6914 18.4714 13.0068 18.4714 17.6207C18.4714 22.2346 19.4914 25.5527 21.2036 27.7187C22.9157 29.8847 25.5386 31.1751 29.1857 31.1751C32.8328 31.1751 35.4535 29.8847 37.1657 27.7187C38.8799 25.55 39.8999 22.2346 39.8999 17.6207C39.8999 15.0101 39.5849 12.7736 39.0064 10.9302L37.6114 12.4971C37.4287 12.7024 37.2115 12.8522 36.9761 12.9352C36.7409 13.0183 36.4937 13.0324 36.2534 12.9764C36.0131 12.9205 35.7861 12.796 35.5896 12.6125C35.3931 12.4289 35.2322 12.191 35.1192 11.917C34.4978 10.4125 34.6692 8.56096 35.0186 7.154C35.3892 5.66032 36.0942 4.10156 37.0821 2.99281C37.2789 2.7708 37.5159 2.61346 37.7721 2.53467C39.0578 2.1443 40.472 2.30424 41.6508 2.77322C42.7648 3.2151 44.0636 4.09612 44.6828 5.60068C44.796 5.87476 44.8584 6.17796 44.8652 6.48716C44.872 6.79636 44.8228 7.1034 44.7216 7.38496C44.6204 7.66648 44.4696 7.91512 44.2808 8.11184C44.0924 8.3086 43.8708 8.44828 43.6328 8.52028L41.8756 9.05432C42.7136 11.5619 43.1144 14.4625 43.1144 17.6207C43.1144 22.9828 41.9164 27.4612 39.4392 30.5922C36.9621 33.726 33.4242 35.2414 29.1857 35.2414C24.9471 35.2414 21.4071 33.726 18.93 30.5922C16.4528 27.4612 15.2571 22.9828 15.2571 17.6207C15.2571 12.2586 16.4528 7.7802 18.93 4.64916C21.4071 1.51538 24.9471 0 29.1857 0C29.5864 0 29.9828 0.0135544 30.3707 0.0406632C30.5814 0.0554372 30.7879 0.122585 30.9781 0.238274C31.1684 0.353963 31.3387 0.515928 31.4795 0.714916C31.6203 0.913908 31.7287 1.14603 31.7986 1.39803C31.8685 1.65003 31.8984 1.91697 31.8868 2.18361C31.8751 2.45025 31.822 2.71137 31.7306 2.95206C31.6391 3.19276 31.5111 3.4083 31.3538 3.5864C31.1965 3.7645 31.013 3.90166 30.8138 3.99005C30.6146 4.07844 30.4036 4.11632 30.1928 4.10156Z" fill="#36B7DA"/>
<path d="M4.58568 113.797C4.65856 115.061 5.08524 116.25 5.78908 117.152C6.49296 118.053 7.4278 118.607 8.42568 118.715C23.2457 120.32 36.7543 120.32 51.5744 118.715C52.572 118.607 53.5072 118.053 54.2108 117.152C54.9148 116.25 55.3416 115.061 55.4144 113.797C56.5992 93.9856 56.5992 74.0888 55.4144 54.2772C55.3416 53.0136 54.9148 51.8244 54.2108 50.9228C53.5072 50.0216 52.572 49.4672 51.5744 49.3596C37.2194 47.756 22.7806 47.756 8.42568 49.3596C7.4278 49.4672 6.49296 50.0216 5.78908 50.9228C5.08524 51.8244 4.65856 53.0136 4.58568 54.2772C3.40086 74.0888 3.40086 93.9856 4.58568 113.797Z" fill="#36B7DA"/>
<path fill-rule="evenodd" clip-rule="evenodd" d="M4.58587 113.797C4.65871 115.061 5.08543 116.25 5.78927 117.152C6.49311 118.053 7.42795 118.607 8.42587 118.715C10.9116 118.986 13.363 119.203 15.7887 119.387C16.7876 95.834 16.8548 72.2328 15.9902 48.6712C13.5002 48.8556 10.9844 49.0832 8.42587 49.3596C7.42871 49.4684 6.49491 50.0232 5.79191 50.9244C5.08895 51.8256 4.66287 53.0144 4.59015 54.2772C3.40529 74.0888 3.40529 93.9856 4.59015 113.797H4.58587ZM42.9688 73.8716C43.6792 73.8684 44.3596 73.5088 44.8604 72.8712C45.3608 72.2336 45.6408 71.3708 45.6388 70.472C45.6364 69.5732 45.352 68.7124 44.848 68.0792C44.344 67.4456 43.662 67.0912 42.9516 67.0944L32.1344 67.1484C31.7827 67.15 31.4346 67.2388 31.11 67.4104C30.7855 67.582 30.4908 67.8328 30.2429 68.1488C29.995 68.4644 29.7986 68.8388 29.665 69.2504C29.5315 69.662 29.4633 70.1028 29.4644 70.548C29.4656 70.9928 29.536 71.4332 29.6716 71.844C29.8073 72.2544 30.0055 72.6272 30.255 72.9408C30.5046 73.2544 30.8005 73.5028 31.1259 73.672C31.4513 73.8408 31.7998 73.9272 32.1516 73.9256L42.9688 73.8716Z" fill="#226FA9"/>
<path fill-rule="evenodd" clip-rule="evenodd" d="M4.58587 113.797C4.65871 115.061 5.08543 116.25 5.78927 117.152C6.49311 118.053 7.42795 118.607 8.42587 118.715C10.9116 118.986 13.363 119.203 15.7887 119.387C16.7876 95.834 16.8548 72.2328 15.9902 48.6712C13.5002 48.8556 10.9844 49.0832 8.42587 49.3596C7.42871 49.4684 6.49491 50.0232 5.79191 50.9244C5.08895 51.8256 4.66287 53.0144 4.59015 54.2772C3.40529 74.0888 3.40529 93.9856 4.59015 113.797H4.58587ZM42.9688 73.8716C43.6792 73.8684 44.3596 73.5088 44.8604 72.8712C45.3608 72.2336 45.6408 71.3708 45.6388 70.472C45.6364 69.5732 45.352 68.7124 44.848 68.0792C44.344 67.4456 43.662 67.0912 42.9516 67.0944L32.1344 67.1484C31.7827 67.15 31.4346 67.2388 31.11 67.4104C30.7855 67.582 30.4908 67.8328 30.2429 68.1488C29.995 68.4644 29.7986 68.8388 29.665 69.2504C29.5315 69.662 29.4633 70.1028 29.4644 70.548C29.4656 70.9928 29.536 71.4332 29.6716 71.844C29.8073 72.2544 30.0055 72.6272 30.255 72.9408C30.5046 73.2544 30.8005 73.5028 31.1259 73.672C31.4513 73.8408 31.7998 73.9272 32.1516 73.9256L42.9688 73.8716Z" fill="#226FA9"/>
<path fill-rule="evenodd" clip-rule="evenodd" d="M42.9832 104.893C43.6936 104.89 44.374 104.531 44.8748 103.893C45.3756 103.256 45.6556 102.393 45.6532 101.494C45.6508 100.595 45.3664 99.7344 44.8628 99.1012C44.3588 98.4676 43.6764 98.1132 42.966 98.116L32.1489 98.1704C31.7972 98.172 31.4491 98.2608 31.1245 98.4324C30.8 98.604 30.5053 98.8548 30.2574 99.1704C30.0095 99.4864 29.8131 99.8604 29.6796 100.272C29.546 100.684 29.4778 101.125 29.4789 101.57C29.48 102.015 29.5504 102.455 29.6861 102.866C29.8218 103.276 30.02 103.649 30.2695 103.963C30.519 104.276 30.815 104.525 31.1404 104.694C31.4658 104.863 31.8143 104.949 32.1661 104.948L42.9832 104.893Z" fill="#226FA9"/>
<path fill-rule="evenodd" clip-rule="evenodd" d="M42.9832 88.978C43.6936 88.9752 44.374 88.6152 44.8748 87.9776C45.3756 87.3404 45.6556 86.4772 45.6532 85.5784C45.6508 84.6796 45.3664 83.8192 44.8628 83.1856C44.3588 82.552 43.6764 82.198 42.966 82.2008L32.1489 82.2548C31.7972 82.2564 31.4491 82.3456 31.1245 82.5172C30.8 82.6888 30.5053 82.9396 30.2574 83.2552C30.0095 83.5708 29.8131 83.9452 29.6796 84.3568C29.546 84.7684 29.4778 85.2092 29.4789 85.6544C29.48 86.0992 29.5504 86.5396 29.6861 86.9504C29.8218 87.3608 30.02 87.7336 30.2695 88.0472C30.519 88.3608 30.815 88.6092 31.1404 88.7784C31.4658 88.9472 31.8143 89.0336 32.1661 89.032L42.9832 88.978Z" fill="#226FA9"/>
</g>
</g>
</g>
<defs>
<clipPath id="clip0_219_343">
<rect width="60" height="120" fill="white"/>
</clipPath>
</defs>
</svg>
