<svg width="50" height="50" viewBox="0 0 50 50" fill="none" xmlns="http://www.w3.org/2000/svg">
<path fill-rule="evenodd" clip-rule="evenodd" d="M5.44668 0C4.00213 0 2.61674 0.575108 1.59529 1.59881C0.573844 2.62251 0 4.01094 0 5.45867V43.6694C0 45.1171 0.573844 46.5055 1.59529 47.5292C2.61674 48.5529 4.00213 49.128 5.44668 49.128H32.6801C34.1246 49.128 35.51 48.5529 36.5314 47.5292C37.5529 46.5055 38.1267 45.1171 38.1267 43.6694V5.45867C38.1267 4.01094 37.5529 2.62251 36.5314 1.59881C35.51 0.575108 34.1246 0 32.6801 0H5.44668ZM2.72334 5.45867C2.72334 4.7348 3.01026 4.04059 3.52099 3.52874C4.03171 3.01689 4.7244 2.72933 5.44668 2.72933H32.6801C33.4023 2.72933 34.095 3.01689 34.6057 3.52874C35.1165 4.04059 35.4034 4.7348 35.4034 5.45867V43.6694C35.4034 44.3932 35.1165 45.0874 34.6057 45.5993C34.095 46.1111 33.4023 46.3987 32.6801 46.3987H5.44668C4.7244 46.3987 4.03171 46.1111 3.52099 45.5993C3.01026 45.0874 2.72334 44.3932 2.72334 43.6694V5.45867ZM40.8501 13.6467C40.8501 12.5609 41.2805 11.5196 42.0465 10.7518C42.8126 9.984 43.8517 9.55267 44.9351 9.55267C46.0185 9.55267 47.0575 9.984 47.8236 10.7518C48.5897 11.5196 49.0201 12.5609 49.0201 13.6467V41.3535L44.9351 47.4945L40.8501 41.3535V13.6467ZM44.9351 12.282C44.5739 12.282 44.2276 12.4258 43.9722 12.6817C43.7169 12.9376 43.5734 13.2847 43.5734 13.6467V16.376H46.2967V13.6467C46.2967 13.2847 46.1533 12.9376 45.8979 12.6817C45.6426 12.4258 45.2962 12.282 44.9351 12.282ZM44.9351 42.5735L43.5734 40.5265V19.1053H46.2967V40.5265L44.9351 42.5735Z" fill="black"/>
<path d="M9.60139 10.5529H10.3741L11.0218 11.4052L11.1923 11.6325L12.1582 12.9165H11.3855L10.7491 12.0643L10.59 11.8484L9.60139 10.5529ZM12.3968 9.462C12.3968 10.0756 12.286 10.6059 12.0645 11.0529C11.8429 11.4999 11.5389 11.8446 11.1525 12.087C10.7662 12.3294 10.3249 12.4506 9.82866 12.4506C9.33245 12.4506 8.89116 12.3294 8.50479 12.087C8.11843 11.8446 7.81445 11.4999 7.59286 11.0529C7.37127 10.6059 7.26048 10.0756 7.26048 9.462C7.26048 8.84837 7.37127 8.31806 7.59286 7.87109C7.81445 7.42412 8.11843 7.07943 8.50479 6.837C8.89116 6.59458 9.33245 6.47337 9.82866 6.47337C10.3249 6.47337 10.7662 6.59458 11.1525 6.837C11.5389 7.07943 11.8429 7.42412 12.0645 7.87109C12.286 8.31806 12.3968 8.84837 12.3968 9.462ZM11.715 9.462C11.715 8.95821 11.6307 8.53303 11.4622 8.18643C11.2955 7.83984 11.0692 7.57753 10.7832 7.3995C10.4991 7.22147 10.1809 7.13246 9.82866 7.13246C9.47639 7.13246 9.15726 7.22147 8.87127 7.3995C8.58718 7.57753 8.36085 7.83984 8.19229 8.18643C8.02563 8.53303 7.94229 8.95821 7.94229 9.462C7.94229 9.96579 8.02563 10.391 8.19229 10.7376C8.36085 11.0842 8.58718 11.3465 8.87127 11.5245C9.15726 11.7025 9.47639 11.7915 9.82866 11.7915C10.1809 11.7915 10.4991 11.7025 10.7832 11.5245C11.0692 11.3465 11.2955 11.0842 11.4622 10.7376C11.6307 10.391 11.715 9.96579 11.715 9.462Z" fill="black"/>
<rect x="15.8301" y="7.37109" width="16" height="2" rx="1" fill="black"/>
<rect x="14.8301" y="34.3711" width="16" height="2" rx="1" fill="black"/>
<rect x="14.8301" y="30.3711" width="16" height="2" rx="1" fill="black"/>
<rect x="15.8301" y="11.3711" width="11" height="2" rx="1" fill="black"/>
<rect x="14.8301" y="38.3711" width="11" height="2" rx="1" fill="black"/>
<path d="M8.07013 29.3711H7.3315L9.46786 23.5529H10.1951L12.3315 29.3711H11.5929L9.85423 24.4734H9.80877L8.07013 29.3711ZM8.34286 27.0984H11.3201V27.7234H8.34286V27.0984Z" fill="black"/>
<rect x="14.8301" y="22.3711" width="16" height="2" rx="1" fill="black"/>
<rect x="14.8301" y="26.3711" width="16" height="2" rx="1" fill="black"/>
<path fill-rule="evenodd" clip-rule="evenodd" d="M5.44668 0C4.00213 0 2.61674 0.575108 1.59529 1.59881C0.573844 2.62251 0 4.01094 0 5.45867V43.6694C0 45.1171 0.573844 46.5055 1.59529 47.5292C2.61674 48.5529 4.00213 49.128 5.44668 49.128H32.6801C34.1246 49.128 35.51 48.5529 36.5314 47.5292C37.5529 46.5055 38.1267 45.1171 38.1267 43.6694V5.45867C38.1267 4.01094 37.5529 2.62251 36.5314 1.59881C35.51 0.575108 34.1246 0 32.6801 0H5.44668ZM2.72334 5.45867C2.72334 4.7348 3.01026 4.04059 3.52099 3.52874C4.03171 3.01689 4.7244 2.72933 5.44668 2.72933H32.6801C33.4023 2.72933 34.095 3.01689 34.6057 3.52874C35.1165 4.04059 35.4034 4.7348 35.4034 5.45867V43.6694C35.4034 44.3932 35.1165 45.0874 34.6057 45.5993C34.095 46.1111 33.4023 46.3987 32.6801 46.3987H5.44668C4.7244 46.3987 4.03171 46.1111 3.52099 45.5993C3.01026 45.0874 2.72334 44.3932 2.72334 43.6694V5.45867ZM40.8501 13.6467C40.8501 12.5609 41.2805 11.5196 42.0465 10.7518C42.8126 9.984 43.8517 9.55267 44.9351 9.55267C46.0185 9.55267 47.0575 9.984 47.8236 10.7518C48.5897 11.5196 49.0201 12.5609 49.0201 13.6467V41.3535L44.9351 47.4945L40.8501 41.3535V13.6467ZM44.9351 12.282C44.5739 12.282 44.2276 12.4258 43.9722 12.6817C43.7169 12.9376 43.5734 13.2847 43.5734 13.6467V16.376H46.2967V13.6467C46.2967 13.2847 46.1533 12.9376 45.8979 12.6817C45.6426 12.4258 45.2962 12.282 44.9351 12.282ZM44.9351 42.5735L43.5734 40.5265V19.1053H46.2967V40.5265L44.9351 42.5735Z" fill="black"/>
<path d="M9.60139 10.5529H10.3741L11.0218 11.4052L11.1923 11.6325L12.1582 12.9165H11.3855L10.7491 12.0643L10.59 11.8484L9.60139 10.5529ZM12.3968 9.462C12.3968 10.0756 12.286 10.6059 12.0645 11.0529C11.8429 11.4999 11.5389 11.8446 11.1525 12.087C10.7662 12.3294 10.3249 12.4506 9.82866 12.4506C9.33245 12.4506 8.89116 12.3294 8.50479 12.087C8.11843 11.8446 7.81445 11.4999 7.59286 11.0529C7.37127 10.6059 7.26048 10.0756 7.26048 9.462C7.26048 8.84837 7.37127 8.31806 7.59286 7.87109C7.81445 7.42412 8.11843 7.07943 8.50479 6.837C8.89116 6.59458 9.33245 6.47337 9.82866 6.47337C10.3249 6.47337 10.7662 6.59458 11.1525 6.837C11.5389 7.07943 11.8429 7.42412 12.0645 7.87109C12.286 8.31806 12.3968 8.84837 12.3968 9.462ZM11.715 9.462C11.715 8.95821 11.6307 8.53303 11.4622 8.18643C11.2955 7.83984 11.0692 7.57753 10.7832 7.3995C10.4991 7.22147 10.1809 7.13246 9.82866 7.13246C9.47639 7.13246 9.15726 7.22147 8.87127 7.3995C8.58718 7.57753 8.36085 7.83984 8.19229 8.18643C8.02563 8.53303 7.94229 8.95821 7.94229 9.462C7.94229 9.96579 8.02563 10.391 8.19229 10.7376C8.36085 11.0842 8.58718 11.3465 8.87127 11.5245C9.15726 11.7025 9.47639 11.7915 9.82866 11.7915C10.1809 11.7915 10.4991 11.7025 10.7832 11.5245C11.0692 11.3465 11.2955 11.0842 11.4622 10.7376C11.6307 10.391 11.715 9.96579 11.715 9.462Z" fill="black"/>
<rect x="15.8301" y="7.37109" width="16" height="2" rx="1" fill="black"/>
<rect x="14.8301" y="34.3711" width="16" height="2" rx="1" fill="black"/>
<rect x="14.8301" y="30.3711" width="16" height="2" rx="1" fill="black"/>
<rect x="15.8301" y="11.3711" width="11" height="2" rx="1" fill="black"/>
<rect x="14.8301" y="38.3711" width="11" height="2" rx="1" fill="black"/>
<path d="M8.07013 29.3711H7.3315L9.46786 23.5529H10.1951L12.3315 29.3711H11.5929L9.85423 24.4734H9.80877L8.07013 29.3711ZM8.34286 27.0984H11.3201V27.7234H8.34286V27.0984Z" fill="black"/>
<rect x="14.8301" y="22.3711" width="16" height="2" rx="1" fill="black"/>
<rect x="14.8301" y="26.3711" width="16" height="2" rx="1" fill="black"/>
</svg>
