<svg width="51" height="66" viewBox="0 0 51 66" fill="none" xmlns="http://www.w3.org/2000/svg">
<g clip-path="url(#clip0_257_341)">
<path d="M27.5039 51.0394C27.5039 53.4822 28.4267 55.825 30.0694 57.5523C31.712 59.2796 33.9399 60.25 36.263 60.25C38.586 60.25 40.8139 59.2796 42.4566 57.5523C44.0992 55.825 45.022 53.4822 45.022 51.0394C45.022 48.5966 44.0992 46.2539 42.4566 44.5266C40.8139 42.7993 38.586 41.8289 36.263 41.8289C33.9399 41.8289 31.712 42.7993 30.0694 44.5266C28.4267 46.2539 27.5039 48.5966 27.5039 51.0394Z" fill="#8FBFFA"/>
<path fill-rule="evenodd" clip-rule="evenodd" d="M29.2555 51.0394C29.2555 49.0851 29.9937 47.2109 31.3078 45.8291C32.6219 44.4472 34.4043 43.6709 36.2627 43.6709C38.1211 43.6709 39.9035 44.4472 41.2176 45.8291C42.5317 47.2109 43.27 49.0851 43.27 51.0394C43.27 52.9936 42.5317 54.8678 41.2176 56.2497C39.9035 57.6315 38.1211 58.4078 36.2627 58.4078C34.4043 58.4078 32.6219 57.6315 31.3078 56.2497C29.9937 54.8678 29.2555 52.9936 29.2555 51.0394ZM36.2627 39.9867C34.6085 39.9865 32.9776 40.3968 31.5026 41.1844C30.0276 41.9719 28.7502 43.1145 27.7743 44.519C26.7985 45.9236 26.1516 47.5505 25.8864 49.2675C25.6212 50.9845 25.7452 52.7431 26.2482 54.4003C26.7512 56.0574 27.6191 57.5663 28.7812 58.8042C29.9434 60.0421 31.367 60.9741 32.9362 61.5244C34.5055 62.0747 36.1761 62.2278 37.8123 61.9711C39.4484 61.7144 41.0038 61.0553 42.352 60.0473L47.2869 65.2366C47.6173 65.5721 48.0598 65.7578 48.5191 65.7536C48.9784 65.7494 49.4178 65.5557 49.7426 65.2141C50.0674 64.8726 50.2516 64.4105 50.2556 63.9276C50.2596 63.4446 50.083 62.9792 49.7639 62.6318L44.8308 57.4444C45.949 55.7909 46.6127 53.8456 46.7493 51.8217C46.8858 49.7978 46.49 47.7734 45.6051 45.9704C44.7202 44.1674 43.3804 42.6553 41.7325 41.5999C40.0846 40.5444 38.1922 39.9863 36.2627 39.9867Z" fill="#2859C5"/>
</g>
<path fill-rule="evenodd" clip-rule="evenodd" d="M36.4304 27.2634H1.58393C0.712768 27.2634 0 28.0302 0 28.9673V32.3753C0 32.8272 0.166878 33.2606 0.463923 33.5802C0.760967 33.8997 1.16385 34.0792 1.58393 34.0792H36.4304C36.8505 34.0792 37.2534 33.8997 37.5504 33.5802C37.8474 33.2606 38.0143 32.8272 38.0143 32.3753V28.9673C38.0143 28.5154 37.8474 28.082 37.5504 27.7625C37.2534 27.4429 36.8505 27.2634 36.4304 27.2634ZM36.4304 13.6317H1.58393C0.712768 13.6317 0 14.3985 0 15.3357V18.7436C0 19.1955 0.166878 19.6289 0.463923 19.9485C0.760967 20.268 1.16385 20.4475 1.58393 20.4475H36.4304C36.8505 20.4475 37.2534 20.268 37.5504 19.9485C37.8474 19.6289 38.0143 19.1955 38.0143 18.7436V15.3357C38.0143 14.8837 37.8474 14.4503 37.5504 14.1308C37.2534 13.8112 36.8505 13.6317 36.4304 13.6317ZM20.5911 40.8951H1.58393C0.712768 40.8951 0 41.6619 0 42.599V46.007C0 46.4589 0.166878 46.8923 0.463923 47.2118C0.760967 47.5314 1.16385 47.7109 1.58393 47.7109H20.5911C21.0112 47.7109 21.4141 47.5314 21.7111 47.2118C22.0081 46.8923 22.175 46.4589 22.175 46.007V42.599C22.175 42.1471 22.0081 41.7137 21.7111 41.3942C21.4141 41.0746 21.0112 40.8951 20.5911 40.8951ZM36.4304 0H1.58393C0.712768 0 0 0.766783 0 1.70396V5.11188C0 5.5638 0.166878 5.99721 0.463923 6.31677C0.760967 6.63632 1.16385 6.81585 1.58393 6.81585H36.4304C36.8505 6.81585 37.2534 6.63632 37.5504 6.31677C37.8474 5.99721 38.0143 5.5638 38.0143 5.11188V1.70396C38.0143 1.25204 37.8474 0.818634 37.5504 0.499079C37.2534 0.179524 36.8505 0 36.4304 0Z" fill="black"/>
<defs>
<clipPath id="clip0_257_341">
<rect width="24.5254" height="25.7896" fill="white" transform="translate(25.752 39.9867)"/>
</clipPath>
</defs>
</svg>
