<svg width="71" height="91" viewBox="0 0 71 91" fill="none" xmlns="http://www.w3.org/2000/svg">
<g clip-path="url(#clip0_242_365)">
<path d="M11.6382 17.5798C9.78623 17.5798 8.01005 18.4067 6.70052 19.8785C5.39099 21.3503 4.65527 23.3465 4.65527 25.4279V82.98C4.65527 85.0613 5.39099 87.0578 6.70052 88.5296C8.01005 90.0013 9.78618 90.828 11.6382 90.828H53.5357C55.3876 90.828 57.164 90.0013 58.4736 88.5296C59.7831 87.0578 60.5186 85.0613 60.5186 82.98V41.1239C60.5186 40.4301 60.2733 39.7647 59.8371 39.2741L41.2157 18.346C40.7793 17.8554 40.1872 17.5798 39.5699 17.5798H11.6382Z" fill="#8FBFFA"/>
<path fill-rule="evenodd" clip-rule="evenodd" d="M18.0393 41.1239C18.0393 39.3179 19.3419 37.8539 20.9489 37.8539H30.2594C31.8663 37.8539 33.169 39.3179 33.169 41.1239C33.169 42.9299 31.8663 44.3939 30.2594 44.3939H20.9489C19.3419 44.3939 18.0393 42.9299 18.0393 41.1239ZM18.0393 56.8199C18.0393 55.014 19.3419 53.5499 20.9489 53.5499H44.2252C45.8322 53.5499 47.1348 55.014 47.1348 56.8199C47.1348 58.6259 45.8322 60.09 44.2252 60.09H20.9489C19.3419 60.09 18.0393 58.6259 18.0393 56.8199ZM20.9489 69.246C19.3419 69.246 18.0393 70.7099 18.0393 72.516C18.0393 74.3221 19.3419 75.786 20.9489 75.786H44.2252C45.8322 75.786 47.1348 74.3221 47.1348 72.516C47.1348 70.7099 45.8322 69.246 44.2252 69.246H20.9489Z" fill="#2859C5"/>
</g>
<path fill-rule="evenodd" clip-rule="evenodd" d="M53.4142 2.49988C53.4715 2.44449 53.5489 2.41327 53.6298 2.41301H59.3678V19.5614H55.8305C55.5006 19.5614 55.1842 19.6886 54.951 19.9148C54.7177 20.1411 54.5867 20.448 54.5867 20.7679C54.5867 21.0879 54.7177 21.3948 54.951 21.6211C55.1842 21.8473 55.5006 21.9744 55.8305 21.9744H65.3926C65.7225 21.9744 66.0388 21.8473 66.2721 21.6211C66.5053 21.3948 66.6364 21.0879 66.6364 20.7679C66.6364 20.448 66.5053 20.1411 66.2721 19.9148C66.0388 19.6886 65.7225 19.5614 65.3926 19.5614H61.8553V2.41301H67.5933C67.6745 2.41343 67.7523 2.44492 67.8097 2.50064C67.8672 2.55636 67.8996 2.63181 67.9001 2.71061V4.96758C67.9001 5.12602 67.9322 5.28291 67.9947 5.42929C68.0573 5.57567 68.1489 5.70867 68.2644 5.8207C68.3799 5.93274 68.517 6.02161 68.6679 6.08224C68.8188 6.14287 68.9805 6.17408 69.1438 6.17408C69.3072 6.17408 69.4689 6.14287 69.6198 6.08224C69.7707 6.02161 69.9078 5.93274 70.0233 5.8207C70.1388 5.70867 70.2304 5.57567 70.2929 5.42929C70.3555 5.28291 70.3876 5.12602 70.3876 4.96758V2.71061C70.3876 2.35451 70.3153 2.00191 70.1748 1.67293C70.0342 1.34396 69.8282 1.04508 69.5686 0.793351C69.3089 0.541626 69.0007 0.341998 68.6615 0.205872C68.3223 0.0697452 67.9587 -0.000210857 67.5916 4.77394e-07H53.6315C53.2644 -0.000210857 52.9008 0.0697452 52.5616 0.205872C52.2224 0.341998 51.9141 0.541626 51.6545 0.793351C51.3948 1.04508 51.1888 1.34396 51.0483 1.67293C50.9078 2.00191 50.8354 2.35451 50.8354 2.71061V4.96758C50.8354 5.12602 50.8676 5.28291 50.9301 5.42929C50.9926 5.57567 51.0842 5.70867 51.1997 5.8207C51.3152 5.93274 51.4524 6.02161 51.6033 6.08224C51.7542 6.14287 51.9159 6.17408 52.0792 6.17408C52.2426 6.17408 52.4043 6.14287 52.5552 6.08224C52.7061 6.02161 52.8432 5.93274 52.9587 5.8207C53.0742 5.70867 53.1658 5.57567 53.2283 5.42929C53.2908 5.28291 53.323 5.12602 53.323 4.96758V2.71061C53.323 2.63179 53.3562 2.55457 53.4142 2.49988Z" fill="#2859C5"/>
<defs>
<clipPath id="clip0_242_365">
<rect width="65.1739" height="73.2482" fill="white" transform="translate(0 17.5798)"/>
</clipPath>
</defs>
</svg>
